# xmcd
# 
# Track frame offsets:
#     150
#     13296
#     23106
#     35145
#     47627
#     60752
#     67388
#     77201
#     85938
#     99585
#     113465
#     126320
#     141792
#     153491
#     161683
#     174858
#     187253
#     197997
#     208962
#     224079
# 
# Disc length: 3126
# 
# Revision: 3
# Processed by: cddbd v1.5.2PL0 Copyright (c) Steve Scherf et al.
# Submitted via: fre:ac v1.0.17
# 
DISCID=2d0c3414
DTITLE=Various Artist - Country Greats CD2
DYEAR=2004
DGENRE=Country
TTITLE0=Hank Snow - My Good Gal's Gone
TTITLE1=Hank Penny and His California Cowhands - The Wang Wang Blues
TTITLE2=Flatt and Scruggs with the Foggy Mountain Boys - My Cabin In Caroline
TTITLE3=The Stanley Brothers with the Clinch Mountain Boys - Hey! Hey! Hey!
TTITLE4=Spade Cooley and Tex Williams - You'll Rue The day
TTITLE5=Tennessee Ernie Ford - John Henry
TTITLE6=Ferlin Husky - I Feel Better All Over (More Than Anywhere Else)
TTITLE7=Jim Reeves - Oklahoma Hills
TTITLE8=Bill Monoe and His Bluegrass boys - Blue Grass Stomp
TTITLE9=Kitty Wells - Death At The Bar
TTITLE10=Johnny Bond and His Red River Valley Boys - Mexicali Rose
TTITLE11=Ernest Tubb - Driftwood On The River
TTITLE12=Patsy Montana and Her Buckaroos - Mama Never said A Word About love
TTITLE13=Rex Allen and His Arizona Wranglers with Bonnie Allen - The Life Of A Cowboy
TTITLE14=Spade Cooley and Tex Williams - You Can't Break My heart
TTITLE15=Flatt and Scruggs with the Foggy Mountain Boys - Don't Get Above Your Raisin'
TTITLE16=The Stanley Brothers with the Clinch Mountain Boys - The Old Home
TTITLE17=Flatt and Scruggs with the Foggy Mountain Boys - Cora Is Gone
TTITLE18=Burl ives - Thinking Tonight Of My Blue Eyes
TTITLE19=Red Foley and His Crossroad Boys - Square Dance Tennessee
EXTD=
EXTT0=
EXTT1=
EXTT2=
EXTT3=
EXTT4=
EXTT5=
EXTT6=
EXTT7=
EXTT8=
EXTT9=
EXTT10=
EXTT11=
EXTT12=
EXTT13=
EXTT14=
EXTT15=
EXTT16=
EXTT17=
EXTT18=
EXTT19=
PLAYORDER=
